<svg width="50" height="50" viewBox="0 0 50 50" fill="none" xmlns="http://www.w3.org/2000/svg">
<g clip-path="url(#clip0_309_84)">
<path d="M44.002 21.0553C43.8175 20.7068 43.8175 20.2907 44.0019 19.9424L44.6173 18.7798C45.5642 16.9911 45.0496 14.7367 43.4204 13.5359L42.3616 12.7555C42.0442 12.5215 41.8637 12.1467 41.8787 11.7529L41.9289 10.4384C42.0058 8.41607 40.5641 6.60819 38.5753 6.23317L37.2826 5.98945C36.8952 5.91638 36.57 5.65702 36.4126 5.29558L35.8874 4.08955C35.0792 2.2341 32.996 1.23057 31.0413 1.75582L29.7709 2.09714C29.3903 2.19932 28.9846 2.10681 28.686 1.84951L27.6895 0.990746C26.1565 -0.330167 23.8441 -0.330167 22.3109 0.990746L21.3143 1.84951C21.0157 2.10681 20.6102 2.19932 20.2295 2.09714L18.9591 1.75582C17.0043 1.23076 14.9213 2.2341 14.1131 4.08955L13.5877 5.29568C13.4304 5.65702 13.1052 5.91638 12.7178 5.98945L11.4251 6.23317C9.43628 6.60819 7.99453 8.41607 8.07151 10.4384L8.12152 11.7529C8.13657 12.1468 7.95604 12.5216 7.63876 12.7555L6.57984 13.536C4.95073 14.7368 4.43621 16.9912 5.38299 18.7799L5.99841 19.9425C6.18284 20.2908 6.18284 20.7068 5.99841 21.0553L5.38299 22.2179C4.43621 24.0065 4.95073 26.2609 6.57984 27.4618L7.63866 28.2422C7.95604 28.4761 8.13647 28.8509 8.12143 29.2449L8.07141 30.5594C7.99443 32.5818 9.43618 34.3897 11.425 34.7646L12.1031 34.8924L12.2032 38.0238L19.432 41.6969L22.5675 40.2096C23.2864 40.7346 24.1431 40.9977 25.0001 40.9977C25.844 40.9977 26.6878 40.7431 27.3999 40.2341L29.9821 41.9898L37.2109 38.302L37.855 34.9004L38.5754 34.7645C40.5642 34.3896 42.0059 32.5817 41.929 30.5592L41.8788 29.2448C41.8639 28.8509 42.0443 28.476 42.3616 28.2422L43.4205 27.4618C45.0497 26.261 45.5643 24.0066 44.6174 22.2179L44.002 21.0553Z" fill="url(#paint0_linear_309_84)"/>
<path d="M38.1875 20.4987C38.1875 13.2271 32.2715 7.3111 24.9999 7.3111C17.7282 7.3111 11.8122 13.2271 11.8122 20.4987C11.8122 27.7704 17.7282 33.6864 24.9999 33.6864C32.2715 33.6864 38.1875 27.7704 38.1875 20.4987ZM31.597 19.7368L29.3615 21.9159L29.8892 24.9928C29.9834 25.5425 29.7574 26.0981 29.3062 26.4259C28.859 26.7508 28.2612 26.7993 27.763 26.5375L24.9998 25.0848L22.2365 26.5375C21.7428 26.7971 21.1447 26.7539 20.6934 26.4259C20.2422 26.0981 20.0161 25.5426 20.1105 24.9928L20.6382 21.9159L18.4026 19.7368C18.0033 19.3475 17.8595 18.7652 18.0319 18.2348C18.2042 17.7043 18.6628 17.3177 19.2148 17.2375L22.3042 16.7886L23.6858 13.9891C23.9326 13.489 24.4421 13.1723 24.9998 13.1723C25.5575 13.1723 26.0669 13.4889 26.3137 13.989L27.6954 16.7885L30.7848 17.2374C31.3368 17.3176 31.7953 17.7042 31.9676 18.2347C32.1399 18.7651 31.9963 19.3475 31.597 19.7368ZM21.3141 39.148C21.0155 38.8907 20.6099 38.7983 20.2292 38.9004L18.9588 39.2416C17.0041 39.7668 14.9209 38.7633 14.1127 36.9079L13.5875 35.7019C13.43 35.3404 13.1048 35.0811 12.7174 35.008L12.1028 34.8921L7.43247 43.3315C7.17311 43.8002 7.19021 44.373 7.47692 44.8254C7.76363 45.2778 8.27472 45.5382 8.80887 45.5033L13.0978 45.2267L15.0098 49.1734C15.2488 49.6669 15.7433 49.9855 16.2914 49.9995C16.3038 49.9998 16.3162 50 16.3287 50C16.8625 50 17.3554 49.7092 17.6131 49.2395L22.5672 40.2094C22.4797 40.1455 22.3938 40.0784 22.3106 40.0067L21.3141 39.148ZM42.5206 43.3316L37.8547 34.9001L37.2823 35.008C36.895 35.081 36.5697 35.3404 36.4124 35.7018L35.8871 36.9079C35.2235 38.4314 33.6998 39.3804 32.094 39.3805C31.7442 39.3805 31.3908 39.3355 31.0411 39.2416L29.7707 38.9004C29.3901 38.7982 28.9843 38.8907 28.6859 39.148L27.6893 40.0067C27.5956 40.0875 27.4989 40.1631 27.3997 40.2339L32.34 49.2394C32.5978 49.7093 33.0907 50 33.6245 50C33.6369 50 33.6494 49.9999 33.6618 49.9995C34.2098 49.9856 34.7043 49.667 34.9433 49.1735L36.8555 45.2268L41.1443 45.5034C41.6773 45.5382 42.1894 45.278 42.4762 44.8255C42.7628 44.373 42.7799 43.8003 42.5206 43.3316Z" fill="url(#paint1_linear_309_84)"/>
</g>
<defs>
<linearGradient id="paint0_linear_309_84" x1="24.9999" y1="41.9897" x2="24.9999" y2="1.09795e-05" gradientUnits="userSpaceOnUse">
<stop stop-color="#FD5900"/>
<stop offset="1" stop-color="#FFDE00"/>
</linearGradient>
<linearGradient id="paint1_linear_309_84" x1="24.9765" y1="50" x2="24.9765" y2="7.3111" gradientUnits="userSpaceOnUse">
<stop stop-color="#FFE59A"/>
<stop offset="1" stop-color="#FFFFD5"/>
</linearGradient>
<clipPath id="clip0_309_84">
<rect width="50" height="50" fill="white"/>
</clipPath>
</defs>
</svg>
