<svg width="6" height="14" viewBox="0 0 6 14" fill="none" xmlns="http://www.w3.org/2000/svg">
<path d="M3.75002 3.24247H5.09252C5.43002 3.24247 5.59502 2.83747 5.35502 2.60497L3.26252 0.519967C3.19089 0.4513 3.0955 0.412964 2.99627 0.412964C2.89705 0.412964 2.80165 0.4513 2.73002 0.519967L0.645023 2.60497C0.405023 2.83747 0.570023 3.24247 0.907523 3.24247H2.25002V10.7575H0.907523C0.570023 10.7575 0.405023 11.1625 0.645023 11.395L2.73752 13.48C2.88752 13.6225 3.12002 13.6225 3.27002 13.48L5.36252 11.395C5.60252 11.1625 5.43002 10.7575 5.10002 10.7575H3.75002V3.24247Z" fill="#F15A24"/>
</svg>
